<svg width="30" height="24" viewBox="0 0 30 24" fill="none" xmlns="http://www.w3.org/2000/svg">
<path d="M15 22.7845H5.93333C4.43986 22.7845 3.69312 22.7845 3.12269 22.4939C2.62092 22.2382 2.21298 21.8302 1.95731 21.3285C1.66666 20.758 1.66666 20.0113 1.66666 18.5178V5.71784C1.66666 4.22436 1.66666 3.47763 1.95731 2.9072C2.21298 2.40543 2.62092 1.99748 3.12269 1.74182C3.69312 1.45117 4.43986 1.45117 5.93333 1.45117H6.46666C9.45361 1.45117 10.9471 1.45117 12.0879 2.03247C13.0915 2.5438 13.9074 3.35969 14.4187 4.36322C15 5.50408 15 6.99756 15 9.9845M15 22.7845V9.9845M15 22.7845H24.0667C25.5601 22.7845 26.3069 22.7845 26.8773 22.4939C27.3791 22.2382 27.787 21.8302 28.0427 21.3285C28.3333 20.758 28.3333 20.0113 28.3333 18.5178V5.71784C28.3333 4.22436 28.3333 3.47763 28.0427 2.9072C27.787 2.40543 27.3791 1.99748 26.8773 1.74182C26.3069 1.45117 25.5601 1.45117 24.0667 1.45117H23.5333C20.5464 1.45117 19.0529 1.45117 17.912 2.03247C16.9085 2.5438 16.0926 3.35969 15.5813 4.36322C15 5.50408 15 6.99756 15 9.9845" stroke="#0D0100" stroke-width="2" stroke-linecap="round" stroke-linejoin="round"/>
</svg>
