<svg width="30" height="30" viewBox="0 0 30 30" fill="none" xmlns="http://www.w3.org/2000/svg">
<path d="M15 1.78516V3.11849M3 15.1185H1.66666M6.33333 6.45182L5.5332 5.65169M23.6667 6.45182L24.467 5.65169M28.3333 15.1185H27M12.3333 17.1185H17.6667M15 17.1185V23.7852M19.6667 21.6171C21.6854 20.1649 23 17.7952 23 15.1185C23 10.7002 19.4183 7.11849 15 7.11849C10.5817 7.11849 7 10.7002 7 15.1185C7 17.7952 8.31457 20.1649 10.3333 21.6171V24.1852C10.3333 25.6786 10.3333 26.4254 10.624 26.9958C10.8796 27.4976 11.2876 27.9055 11.7894 28.1612C12.3598 28.4518 13.1065 28.4518 14.6 28.4518H15.4C16.8935 28.4518 17.6402 28.4518 18.2106 28.1612C18.7124 27.9055 19.1204 27.4976 19.376 26.9958C19.6667 26.4254 19.6667 25.6786 19.6667 24.1852V21.6171Z" stroke="#0D0100" stroke-width="2" stroke-linecap="round" stroke-linejoin="round"/>
</svg>
