<svg width="30" height="27" viewBox="0 0 30 27" fill="none" xmlns="http://www.w3.org/2000/svg">
<path d="M7.08008 25.0015C8.69341 25.7348 10.7467 25.7348 12.3601 25.0015C13.9734 24.2682 16.0267 24.2682 17.6401 25.0015C19.2534 25.7348 21.3067 25.7348 22.9201 25.0015M15 1.11816V3.78483M4.33333 14.4515H1.66666M7.41882 6.87032L5.5332 4.9847M22.5807 6.87032L24.4663 4.9847M28.3333 14.4515H25.6667M8.33333 14.4515C8.33333 10.7696 11.3181 7.78483 15 7.78483C18.6819 7.78483 21.6667 10.7696 21.6667 14.4515M1.80013 20.3348C3.41346 19.6015 5.46679 19.6015 7.08013 20.3348C8.69346 21.0682 10.7468 21.0682 12.3601 20.3348C13.9735 19.6015 16.0268 19.6015 17.6401 20.3348C19.2535 21.0682 21.3068 21.0682 22.9201 20.3348C24.5335 19.6015 26.5868 19.6015 28.2001 20.3348" stroke="white" stroke-width="2" stroke-linecap="round" stroke-linejoin="round"/>
</svg>
