<svg width="177" height="96" viewBox="0 0 177 96" fill="none" xmlns="http://www.w3.org/2000/svg">
<path d="M160.055 67.9814C161.264 67.9647 161.825 71.1456 160.667 71.9056C160.178 72.3374 160.254 72.6198 160.897 72.7527C161.436 73.0641 161.769 73.7327 161.717 74.6546C161.688 76.7807 160.916 77.2874 159.863 76.2036C159.247 75.6098 159.406 72.8441 160.204 71.8765C160.204 71.8765 160.077 70.8509 159.667 69.8999C159.283 68.4881 159.31 68.027 160.055 67.9814ZM147.105 45.9813C147.105 45.9813 146.335 44.8227 146.721 44.5694C147.107 44.3161 147.031 44.0337 146.851 43.9299C146.671 43.8261 146.441 42.979 146.673 42.1609C146.906 41.3429 146.856 40.5995 146.29 40.749C145.827 40.7199 145.571 40.3337 145.314 39.9475C145.34 39.4866 145.726 39.2334 146.086 39.441C146.446 39.6486 146.935 39.2166 147.167 38.3986C147.503 37.402 147.889 37.1486 148.428 37.4601C148.968 37.7715 149.534 37.622 149.586 36.7002C149.872 34.9602 152.482 42.8958 152.478 46.2262C152.578 47.7128 152.808 48.56 152.911 48.3814C153.014 48.2028 153.578 49.7184 154.012 51.8736C154.446 54.0288 155.213 56.8526 155.237 58.0568C156.208 62.1887 157.61 70.1407 157.658 72.5492C157.682 73.7535 158.296 76.0126 158.962 77.3497C159.782 79.2516 159.489 80.59 158.082 81.3652C154.428 83.5412 145.455 84.5505 144.429 83.0057C144.069 82.7981 143.53 82.4867 142.398 82.7857C140.418 83.309 138.799 82.3747 140.06 81.4362C140.832 80.9295 140.473 80.7219 138.955 81.2742C137.541 81.6479 136.436 81.4861 136.102 80.8175C135.589 80.0451 135.306 80.12 135.357 80.8633C135.304 81.7851 135.124 81.6813 134.458 80.3442C133.945 79.5718 133.818 78.546 133.921 78.3675C134.024 78.1889 133.691 77.5204 132.971 77.1051C132.252 76.6899 131.507 76.7356 131.3 77.0927C131.094 77.4498 131.427 78.1184 132.147 78.5337C133.765 79.468 133.453 81.6688 131.912 81.0169C131.372 80.7055 130.293 80.0826 129.574 79.6674C128.855 79.2521 128.136 78.8369 127.647 79.2687C127.261 79.522 126.155 79.3602 125.153 79.0197C124.254 78.5006 122.686 78.3097 121.684 77.9692C120.502 77.5249 120.066 77.0349 120.428 75.5773C120.74 73.3764 120.227 72.604 119.632 74.8796C119.296 75.8763 118.807 76.3081 118.165 76.1752C117.522 76.0423 116.853 76.3705 117.007 76.9352C116.98 77.3962 116.697 77.4709 115.542 76.5656C114.643 76.0466 113.744 75.5276 113.358 75.7809C113.152 76.138 112.715 75.648 112.845 75.0085C112.898 74.0866 113.773 73.4014 115.83 73.1605C117.527 72.712 118.196 72.3839 117.271 72.3258C116.448 72.0891 116.192 71.703 116.398 71.3459C116.707 70.8102 118.069 71.3583 121.126 73.1231C123.823 74.6802 124.902 75.3032 124.209 74.427C123.696 73.6546 123.286 72.7036 123.339 71.7817C123.571 70.9637 123.854 70.8889 123.931 71.1713C124.187 71.5574 124.65 71.5866 124.856 71.2294C125.165 70.6938 125.165 70.6938 125.575 71.6447C125.626 72.388 125.882 72.7741 126.088 72.417C126.604 71.5242 131.025 72.1719 136.215 73.9782C136.755 74.2896 139.504 74.9249 142.074 75.4563C144.645 75.9878 147.291 76.8017 147.831 77.1131C149.089 77.8398 149.528 76.6647 148.399 75.2985C147.783 74.7047 147.553 73.8576 147.759 73.5005C147.965 73.1434 147.709 72.7571 147.349 72.5494C146.81 72.238 138.186 62.2595 134.722 57.8786C134.286 57.3886 133.233 56.3049 132.154 55.682C131.075 55.0591 129.766 53.5891 129.074 52.7129C128.381 51.8367 126.07 50.0263 124.118 48.4234C121.884 46.8953 120.575 45.4253 120.704 44.7858C120.834 44.1463 120.397 43.6563 119.935 43.6273C119.189 43.673 119.395 43.3159 119.884 42.884C120.477 42.2736 120.503 41.8126 119.527 41.0112C118.551 40.2098 118.578 39.7487 119.427 39.5245C121.407 39.0012 121.949 37.6475 120.484 37.278C119.199 37.0123 119.199 37.0122 120.69 36.9208C123.672 36.738 136.151 47.5137 144.415 57.2846C146.853 60.1208 148.931 62.7494 149.291 62.957C149.651 63.1646 150.24 64.2194 150.574 64.888C151.393 66.7898 151.523 66.1503 151.115 63.5342C150.912 62.2262 150.399 61.4537 149.936 61.4246C149.473 61.3956 149.063 60.4447 148.756 59.3152L148.323 57.16L149.039 59.2404C149.679 61.0385 149.859 61.1423 150.375 60.2495C150.684 59.7138 150.84 58.6134 150.61 57.7662C150.149 56.072 150.871 54.822 152.928 54.5811C154.24 54.3859 154.06 54.2821 152.878 53.8378C152.159 53.4226 151.207 53.8254 150.897 54.3611C150.588 54.8968 150.279 55.4325 149.739 55.1211C149.2 54.8097 149.406 54.4525 149.716 53.9168C150.025 53.3811 150.001 52.1769 149.591 51.2259C149.181 50.275 149.26 48.8922 149.672 48.178C150.085 47.4637 150.034 46.7204 149.675 46.5128C149.315 46.3052 148.929 46.5584 148.8 47.1979C148.567 48.016 148.387 47.9121 147.592 47.2145L147.105 45.9813ZM124.722 75.1993C124.722 75.1993 124.412 75.735 125.029 76.3288C125.901 77.3088 126.467 77.1593 125.697 76.0008C125.441 75.6146 125.005 75.1246 124.619 75.3779L124.722 75.1993ZM123.386 74.1902C123.386 74.1902 121.15 74.3273 121.2 75.0707C121.2 75.0707 121.919 75.4859 122.691 74.9793C123.54 74.755 123.746 74.3978 123.207 74.0864L123.386 74.1902ZM135.136 73.3553C135.136 73.3553 134.134 73.0148 133.825 73.5505C133.516 74.0862 133.592 74.3686 133.952 74.5762C134.312 74.7838 134.774 74.8129 135.263 74.381C135.649 74.1277 135.676 73.6667 135.136 73.3553ZM147.445 77.3665C147.445 77.3665 146.133 77.5616 145.618 78.4545C144.793 79.883 144.793 79.883 146.131 79.2269C148.034 78.4213 148.344 77.8856 147.265 77.2627L147.445 77.3665ZM153.712 63.6047C153.712 63.6047 153.247 65.2408 153.041 65.5979C152.834 65.955 152.705 66.5946 153.141 67.0846C153.578 67.5746 154.22 67.7074 154.786 67.5579C155.352 67.4084 155.095 67.0223 154.529 67.1718C153.784 67.2175 153.81 66.7565 154.429 65.6851C154.944 64.7923 155.1 63.6918 154.664 63.2018C154.151 62.4295 153.765 62.6828 153.892 63.7085L153.712 63.6047ZM152.741 59.4728C152.741 59.4728 151.892 59.6971 151.686 60.0543C151.48 60.4114 151.557 60.6938 151.916 60.9014C152.276 61.109 152.662 60.8558 152.971 60.3201C153.28 59.7844 153.204 59.5019 152.741 59.4728ZM153.674 54.5355C153.674 54.5355 152.928 54.5812 152.259 54.9093C151.41 55.1335 151.204 55.4906 151.744 55.802C152.103 56.0096 152.669 55.8602 153.158 55.4283C153.647 54.9965 153.853 54.6393 153.674 54.5355ZM149.582 40.0305C149.018 38.5149 148.838 38.411 148.503 39.4077C148.09 40.1219 148.397 41.2515 148.937 41.5629C150.169 42.7505 150.581 42.0362 149.864 39.9557L149.582 40.0305ZM151.418 50.138C151.418 50.138 150.363 50.7193 151.648 50.9851C153.293 51.4584 153.575 51.3836 152.986 50.3289C152.729 49.9427 152.087 49.8099 151.418 50.138ZM150.138 46.5418C150.238 48.0284 150.545 49.1579 150.725 49.2617L150.905 49.3655C151.089 46.139 151.039 45.3957 150.679 45.1881C150.5 45.0843 150.526 44.6233 151.092 44.4738C151.658 44.3243 151.401 43.9382 150.938 43.9091C150.193 43.9548 150.063 44.5943 150.138 46.5418ZM158.569 64.7424C158.569 64.7424 159.466 66.9267 160.031 66.7772C160.417 66.5239 160.47 65.6019 160.06 64.651C159.19 62.0058 157.699 62.0972 158.569 64.7424ZM157.265 59.9421C157.265 59.9421 159.01 61.902 159.423 61.1878C159.629 60.8307 159.475 60.2659 159.039 59.7759C158.166 58.7959 157.241 58.7378 157.265 59.9421ZM155.434 46.5044C155.434 46.5044 155.973 46.8158 155.407 46.9653C155.021 47.2186 154.892 47.858 155.328 48.348C155.764 48.838 155.918 49.4028 155.532 49.6562C154.76 50.1628 157.217 57.5336 158.219 57.874C158.862 58.0069 158.811 57.2636 158.145 55.9265C157.555 54.8717 157.068 53.6385 157.275 53.2813C157.481 52.9242 156.613 48.6138 155.232 43.5311C153.851 38.4484 152.674 34.6737 152.365 35.2094C151.54 36.6379 154.225 46.521 155.434 46.5044ZM148.021 52.7001C148.021 52.7001 148.33 52.1644 147.714 51.5706C147.021 50.6944 146.918 50.873 147.148 51.7202C147.301 52.2849 147.738 52.7748 148.021 52.7001ZM146.92 49.2079C146.92 49.2079 147.46 49.5192 147.769 48.9835C148.078 48.4478 148.105 47.987 147.745 47.7793C147.385 47.5717 147.102 47.6465 146.896 48.0036C146.69 48.3607 146.664 48.8217 146.92 49.2079ZM122.262 69.4937C122.262 69.4937 120.824 68.6632 119.692 68.9622C118.174 69.5145 118.174 69.5145 119.896 70.2702C122.26 71.1588 123.288 71.0384 122.262 69.4937ZM116.957 40.4797C119.168 40.8036 119.271 40.625 118.501 39.4664C117.911 38.4117 117.938 37.9507 118.89 37.5479C120.021 37.2489 119.765 36.8627 118.223 36.2107C117.144 35.5879 115.936 35.6046 115.627 36.1403C115.317 36.676 115.574 37.0621 116.396 37.2988C117.398 37.6393 117.398 37.6393 116.473 37.5812C115.727 37.6269 115.135 38.2373 114.826 38.773C114.49 39.7696 114.85 39.9773 116.88 40.1973L116.957 40.4797ZM1.52537 24.0708C3.27553 22.7004 3.97074 21.9115 3.25152 21.4963C1.81308 20.6658 11.7434 15.9233 20.4366 13.3236C23.6516 12.3228 24.1143 12.3518 24.7808 13.6889C25.2674 14.9222 25.2674 14.9223 25.0636 13.6142C24.8599 12.3062 25.5288 11.978 29.463 11.3924C32.0858 11.002 34.4257 10.6865 34.7853 10.8941C35.1449 11.1017 35.7108 10.9521 35.8139 10.7736C35.917 10.595 38.3599 10.1009 41.0594 9.99285C44.9673 9.8682 46.0725 10.0301 46.0197 10.952C46.0701 11.6953 46.353 11.6205 46.9716 10.5491C47.487 9.65632 48.1559 9.32826 48.4124 9.71445C48.772 9.92207 49.6711 10.4411 50.5198 10.2169C51.2654 10.1712 52.7566 10.0798 53.5789 10.3165C55.0437 10.6861 55.1204 10.9684 54.2453 11.6536C52.7781 12.9493 51.39 12.8621 51.1862 11.554C51.1359 10.8107 50.853 10.8854 50.4406 11.5997C50.0283 12.3139 49.6422 12.5673 49.2826 12.3597C48.923 12.1521 48.4339 12.584 48.0215 13.2982C47.2999 14.5481 47.2999 14.5481 49.846 13.8753C51.2605 13.5015 52.6486 13.5887 52.9052 13.9749C53.1617 14.3611 53.2647 14.1826 53.2911 13.7216C53.3175 13.2607 53.8066 12.8287 54.2693 12.8578C54.732 12.8869 55.4273 12.098 55.7629 11.1014C56.3311 9.28667 57.7193 9.37373 57.3309 11.2922C57.2014 11.9317 57.5346 12.6003 57.7144 12.7042C58.074 12.9118 58.3833 12.3761 58.4361 11.4542C58.4121 10.25 58.7982 9.99659 59.7236 10.0547C60.3661 10.1876 60.6226 10.5738 60.5195 10.7524C60.4164 10.9309 61.2387 11.1677 62.7563 10.6153C64.1708 10.2416 66.0216 10.3577 66.9207 10.8768C67.8197 11.3958 68.8218 11.7364 69.2078 11.483C69.5938 11.2297 70.1333 11.5411 70.5696 12.0311C71.0059 12.5211 71.4686 12.5502 71.6748 12.1931C71.8809 11.836 72.3436 11.8651 72.6001 12.2513C72.8567 12.6375 73.3194 12.6665 73.4225 12.4879C73.9379 11.5951 77.5868 12.7495 77.6108 13.9537C77.6611 14.697 77.944 14.6223 78.716 14.1157C79.2051 13.6838 80.2336 13.5633 81.1326 14.0823C82.0317 14.6014 83.0338 14.9419 83.7794 14.8962C84.525 14.8505 87.2485 15.9467 89.6891 17.1177C92.1297 18.2887 94.6733 19.2812 95.136 19.3103C95.5987 19.3393 98.6818 20.6432 101.842 22.2294C107.442 24.9866 107.802 25.1941 106.9 26.3403C106.385 27.2331 105.562 26.9965 104.663 26.4774C103.944 26.0622 103.225 25.6469 102.916 26.1826C102.606 26.7183 103.299 27.5945 104.661 28.1426C105.02 28.3502 104.608 29.0644 103.733 29.7496C102.446 31.1491 102.446 31.149 103.963 30.5967C104.915 30.1939 105.84 30.252 106.174 30.9206C106.507 31.5891 106.687 31.6929 106.533 31.1282C106.457 30.8458 107.049 30.2355 107.538 29.8036C108.104 29.6541 108.696 29.0437 108.619 28.7613C108.542 28.4789 108.259 28.5536 108.053 28.9107C107.847 29.2678 107.281 29.4174 106.922 29.2097C106.382 28.8983 106.588 28.5412 107.643 27.9598C108.415 27.4532 108.904 27.0213 108.828 26.7389C108.931 26.5603 109.753 26.7971 111.012 27.5238C112.63 28.4581 113.066 28.948 112.474 29.5584C111.985 29.9903 112.138 30.5551 113.037 31.0741C114.116 31.697 114.116 31.697 113.886 30.8499C113.373 30.0775 113.476 29.8989 114.402 29.957C115.044 30.0899 115.584 30.4013 115.301 30.4761C115.198 30.6547 114.785 31.3689 114.476 31.9046C114.167 32.4403 114.526 32.6479 115.401 31.9627C116.38 31.0989 117.022 31.2318 118.178 32.1371C119.077 32.6561 119.383 33.7856 119.177 34.1427C118.868 34.6784 118.225 34.5456 117.43 33.848C116.634 33.1504 116.171 33.1213 116.324 33.686C116.298 34.147 115.912 34.4003 115.373 34.0889C114.833 33.7774 113.342 33.8688 112.107 34.3463C110.873 34.8239 109.741 35.123 109.561 35.0192C109.381 34.9154 109.022 34.7077 108.842 34.6039C108.842 34.6039 105.682 33.0176 102.343 31.3276C99.106 29.459 95.6633 27.9475 94.7379 27.8894C94.0954 27.7565 92.9134 27.3122 92.4004 26.5399C91.6812 26.1246 91.3215 25.917 91.3983 26.1994C91.1921 26.5565 90.4729 26.1412 89.2142 25.4146C87.9556 24.6879 87.0565 24.1689 86.7472 24.7046C86.541 25.0618 86.438 25.2402 86.2846 24.6755C86.2078 24.3931 86.8 23.7828 87.4689 23.4547C88.3176 23.2304 88.5238 22.8733 87.9844 22.5618C87.6248 22.3542 86.5963 22.4746 85.9274 22.8027C84.3067 23.5336 80.3748 22.454 80.9934 21.3827C81.1996 21.0255 80.6338 21.175 79.7851 21.3993C78.4473 22.0554 78.0877 21.8477 77.7809 20.7182C77.2942 19.4849 77.2942 19.4849 77.0617 20.303C76.9322 20.9425 76.5462 21.1959 76.0068 20.8844C75.4673 20.573 75.3906 20.2906 75.5968 19.9335C75.9828 19.6802 75.9061 19.3977 75.5465 19.1901C75.1869 18.9825 74.6211 19.132 74.3118 19.6677C74.0025 20.2034 73.3336 20.5315 72.6911 20.3986C72.0486 20.2657 71.7921 19.8795 71.8952 19.7009C71.9983 19.5224 70.8164 19.0781 69.3251 19.1695C67.6541 19.157 66.5489 18.9952 66.652 18.8166C66.7551 18.638 66.1126 18.5051 65.0074 18.3432C63.3364 18.3308 63.4394 18.1523 64.3145 17.4671C65.1896 16.7819 64.7269 16.7527 63.2093 17.3051C61.4088 17.9321 61.1259 18.007 62.104 17.1432C63.1853 16.1009 63.1853 16.1009 61.5646 16.8318C60.6128 17.2346 59.8673 17.2803 59.6875 17.1764C58.4288 16.4498 58.0692 16.2422 57.5537 17.135C57.2444 17.6707 56.6787 17.8201 56.1392 17.5087C55.5998 17.1973 55.3433 16.8111 55.7293 16.5578C55.9355 16.2006 55.0101 16.1425 53.622 16.0553C51.7711 15.9391 50.9224 16.1634 50.6899 16.9814C50.3806 17.5171 50.2775 17.6957 50.2008 17.4133C50.0474 16.8485 39.712 17.3097 32.2295 18.2276C30.4554 18.3937 28.7844 18.3813 28.7077 18.0989C28.6309 17.8166 28.0651 17.9661 27.4729 18.5766C26.8808 19.187 24.6176 19.7849 22.2777 20.1006C19.9378 20.4162 17.8544 21.118 17.3653 21.5499C15.898 22.8455 2.80547 27.667 1.70025 27.5051C0.41523 27.2394 0.906789 25.1422 2.27095 24.0252L1.52537 24.0708ZM109.13 31.1988C109.13 31.1988 110.055 31.2569 110.261 30.8997C110.467 30.5426 110.211 30.1565 109.748 30.1274C109.285 30.0984 108.72 30.2479 108.617 30.4265C108.513 30.605 108.59 30.8873 109.13 31.1988ZM108.432 33.653C108.432 33.653 109.897 34.0226 111.131 33.545C112.366 33.0674 113.138 32.5607 112.779 32.3531C112.419 32.1455 111.673 32.1912 111.004 32.5193C110.336 32.8474 109.513 32.6107 109.436 32.3283C109.18 31.9421 108.897 32.0168 108.691 32.3739C108.485 32.731 108.458 33.192 108.715 33.5782L108.432 33.653ZM94.8458 24.3805C94.8458 24.3805 95.1262 25.971 94.8937 26.7891C94.6611 27.6071 94.841 27.7109 95.0999 26.4319C96.0541 24.3639 96.9795 24.422 96.3849 26.6977C96.0492 27.6943 96.3825 28.3628 96.9483 28.2133C97.6939 28.1676 97.797 27.989 97.5669 27.1419C97.1569 26.191 97.26 26.0124 98.0824 26.2491C99.6503 26.44 100.218 24.6254 98.78 23.7949C97.1617 22.8606 94.153 23.5044 94.6396 24.7377L94.8458 24.3805ZM81.1014 17.8737C81.1014 17.8737 82.1299 17.7532 82.3361 17.3961C82.8516 16.5033 82.209 16.3705 81.2308 17.2342C80.7417 17.6661 80.8185 17.9485 81.1014 17.8737ZM89.8855 23.4213C89.8855 23.4213 90.811 23.4794 91.0171 23.1223C91.2233 22.7652 90.9668 22.3791 90.5041 22.35C90.0414 22.3209 89.4756 22.4705 89.3725 22.649C89.2694 22.8276 89.3461 23.1099 89.8855 23.4213ZM82.1011 19.8793C82.1011 19.8793 82.2281 20.905 82.4079 21.0089C82.5877 21.1127 82.8707 21.0379 83.1799 20.5022C83.4892 19.9665 83.2327 19.5803 82.8731 19.3727C82.5135 19.1651 82.1275 19.4184 82.1011 19.8793ZM79.2242 18.2184C79.2242 18.2184 78.7375 16.9851 78.2748 16.956C77.9152 16.7484 77.9656 17.4917 78.1957 18.3388C79.1187 20.0621 79.1186 20.0621 79.1211 18.397L79.2242 18.2184ZM69.5601 16.6862C69.5601 16.6862 70.0229 16.7153 70.3321 16.1796C70.5383 15.8224 70.3848 15.2578 70.0252 15.0502C69.6656 14.8426 69.2797 15.0958 69.2533 15.5567C69.2269 16.0176 69.3803 16.5824 69.5601 16.6862ZM72.7967 18.5548C72.7967 18.5548 73.1826 18.3016 73.4919 17.7659C73.8012 17.2302 73.468 16.5616 72.7487 16.1463C72.0295 15.7311 71.2839 15.7768 71.1808 15.9553C70.9746 16.3125 72.0774 18.1396 72.7967 18.5548ZM67.913 17.8781L66.7047 17.8947C66.7047 17.8947 66.9612 18.2809 67.5007 18.5924C68.0401 18.9038 68.6059 18.7543 68.709 18.5758C68.8121 18.3972 68.5556 18.011 67.913 17.8781ZM63.4707 14.3609C63.7296 13.0819 63.5498 12.9781 62.5716 13.8419C61.9794 14.4523 61.6701 14.988 61.7469 15.2704C62.0537 16.3999 63.3915 15.7437 63.4707 14.3609ZM114.622 37.4649C114.622 37.4649 114.752 36.8254 114.778 36.3645C114.984 36.0074 114.651 35.3388 114.291 35.1312C113.932 34.9236 113.649 34.9983 113.699 35.7416C113.673 36.2026 113.287 36.4559 112.747 36.1445C112.208 35.833 111.462 35.8787 110.973 36.3105C110.484 36.7424 110.458 37.2034 111.357 37.7225C112.076 38.1377 112.642 37.9882 112.848 37.6311C113.054 37.2739 113.337 37.1992 113.876 37.5106C114.236 37.7183 114.596 37.9259 114.596 37.9259L114.622 37.4649Z" fill="#F2F2F2"/>
</svg>